<mxfile host="app.diagrams.net" modified="2023-11-04T15:11:45.262Z" agent="Mozilla/5.0 (Macintosh; Intel Mac OS X 10_15_7) AppleWebKit/605.1.15 (KHTML, like Gecko) Version/15.6.1 Safari/605.1.15" etag="WlUFDCAfHhdIxjYF9xVX" version="22.0.8" type="github">
  <diagram name="Strona-1" id="lUSPnuUecK80H1Bj3bjA">
    <mxGraphModel dx="796" dy="452" grid="1" gridSize="10" guides="1" tooltips="1" connect="1" arrows="1" fold="1" page="1" pageScale="1" pageWidth="827" pageHeight="1169" math="0" shadow="0">
      <root>
        <mxCell id="0" />
        <mxCell id="1" parent="0" />
        <mxCell id="3aJQmZQKKILCcKE1roAq-3" value="&lt;div style=&quot;&quot;&gt;ContactBookManager&lt;/div&gt;&lt;div style=&quot;text-align: left;&quot;&gt;&lt;br&gt;&lt;/div&gt;&lt;div style=&quot;text-align: left;&quot;&gt;- db_manager: DatabaseConnectionManager&lt;/div&gt;&lt;div style=&quot;text-align: left;&quot;&gt;- data_repo: DataRepository&lt;/div&gt;&lt;div style=&quot;text-align: left;&quot;&gt;&lt;br&gt;&lt;/div&gt;&lt;div style=&quot;text-align: left;&quot;&gt;+ __init__()&lt;/div&gt;&lt;div style=&quot;text-align: left;&quot;&gt;+ create (user data)&lt;/div&gt;&lt;div style=&quot;text-align: left;&quot;&gt;+ edit (field, value, updates)&lt;/div&gt;&lt;div style=&quot;text-align: left;&quot;&gt;+ edit_by_criteria (search_criteria, updates)&lt;/div&gt;&lt;div style=&quot;text-align: left;&quot;&gt;+ delete (field, value)&lt;/div&gt;&lt;div style=&quot;text-align: left;&quot;&gt;+ read_all (): list&lt;/div&gt;&lt;div style=&quot;text-align: left;&quot;&gt;+ get_sorted_contacts (sort_key): list&lt;/div&gt;&lt;div style=&quot;text-align: left;&quot;&gt;+ look_for_doubles (field, value): list&lt;/div&gt;&lt;div style=&quot;text-align: left;&quot;&gt;+ get_days_to_birthday ()&lt;/div&gt;&lt;div style=&quot;text-align: left;&quot;&gt;+ get_birthday_wish (name): response&lt;/div&gt;&lt;div style=&quot;&quot;&gt;&lt;br&gt;&lt;/div&gt;" style="rounded=0;whiteSpace=wrap;html=1;" parent="1" vertex="1">
          <mxGeometry x="120" y="180" width="280" height="230" as="geometry" />
        </mxCell>
        <mxCell id="hHAY99vM6y1JYQ9KOGwa-3" value="main&lt;br&gt;&lt;br&gt;&lt;div style=&quot;text-align: left;&quot;&gt;- contact_book_manager: ContactBookManager&lt;/div&gt;&lt;div style=&quot;text-align: left;&quot;&gt;- notes_book_manager: NotesBookManager&lt;/div&gt;" style="rounded=0;whiteSpace=wrap;html=1;" vertex="1" parent="1">
          <mxGeometry x="290" y="30" width="310" height="60" as="geometry" />
        </mxCell>
        <mxCell id="hHAY99vM6y1JYQ9KOGwa-10" value="&lt;div style=&quot;&quot;&gt;NotesBookManager&lt;/div&gt;&lt;div style=&quot;text-align: left;&quot;&gt;&lt;br&gt;&lt;/div&gt;&lt;div style=&quot;text-align: left;&quot;&gt;- db_manager: DatabaseConnectionManager&lt;/div&gt;&lt;div style=&quot;text-align: left;&quot;&gt;- data_repo: DataRepository&lt;/div&gt;&lt;div style=&quot;text-align: left;&quot;&gt;&lt;br&gt;&lt;/div&gt;&lt;div style=&quot;text-align: left;&quot;&gt;+ __init__()&lt;/div&gt;&lt;div style=&quot;text-align: left;&quot;&gt;+ create (user data)&lt;/div&gt;&lt;div style=&quot;text-align: left;&quot;&gt;+ read_all (): list&lt;/div&gt;&lt;div style=&quot;text-align: left;&quot;&gt;+ sorted (sort_key): list&lt;/div&gt;&lt;div style=&quot;text-align: left;&quot;&gt;+ edit (field, value, updates)&lt;br&gt;&lt;/div&gt;&lt;div style=&quot;text-align: left;&quot;&gt;+ edit_by_criteria (search_criteria, updates)&lt;/div&gt;&lt;div style=&quot;text-align: left;&quot;&gt;+ delete (field, value)&lt;/div&gt;&lt;div style=&quot;text-align: left;&quot;&gt;+ look_for_doubles (field, value): list&lt;/div&gt;&lt;div style=&quot;text-align: left;&quot;&gt;&lt;br&gt;&lt;/div&gt;&lt;div style=&quot;&quot;&gt;&lt;br&gt;&lt;/div&gt;" style="rounded=0;whiteSpace=wrap;html=1;" vertex="1" parent="1">
          <mxGeometry x="490" y="180" width="270" height="220" as="geometry" />
        </mxCell>
        <mxCell id="hHAY99vM6y1JYQ9KOGwa-11" value="" style="endArrow=none;html=1;rounded=0;" edge="1" parent="1">
          <mxGeometry width="50" height="50" relative="1" as="geometry">
            <mxPoint x="460" y="440" as="sourcePoint" />
            <mxPoint x="730" y="440" as="targetPoint" />
          </mxGeometry>
        </mxCell>
        <mxCell id="hHAY99vM6y1JYQ9KOGwa-16" style="edgeStyle=orthogonalEdgeStyle;rounded=0;orthogonalLoop=1;jettySize=auto;html=1;exitX=0.5;exitY=0;exitDx=0;exitDy=0;entryX=0.386;entryY=1.1;entryDx=0;entryDy=0;entryPerimeter=0;" edge="1" parent="1" source="3aJQmZQKKILCcKE1roAq-3" target="hHAY99vM6y1JYQ9KOGwa-3">
          <mxGeometry relative="1" as="geometry" />
        </mxCell>
        <mxCell id="hHAY99vM6y1JYQ9KOGwa-20" value="&lt;div style=&quot;&quot;&gt;&lt;div style=&quot;border-color: var(--border-color); text-align: left;&quot;&gt;DatabaseConnectionManager&lt;/div&gt;&lt;div style=&quot;text-align: justify;&quot;&gt;&lt;br&gt;&lt;/div&gt;&lt;/div&gt;&lt;div style=&quot;text-align: left;&quot;&gt;+ __init__()&lt;/div&gt;&lt;div style=&quot;&quot;&gt;&lt;br&gt;&lt;/div&gt;" style="rounded=0;whiteSpace=wrap;html=1;" vertex="1" parent="1">
          <mxGeometry x="290" y="480" width="280" height="60" as="geometry" />
        </mxCell>
        <mxCell id="hHAY99vM6y1JYQ9KOGwa-21" value="&lt;div style=&quot;&quot;&gt;DataRepository&lt;/div&gt;&lt;div style=&quot;text-align: left;&quot;&gt;&lt;br&gt;&lt;/div&gt;&lt;div style=&quot;text-align: left;&quot;&gt;+ __init__(db_connection: DatabaseConnectionManager)&lt;/div&gt;&lt;div style=&quot;text-align: left;&quot;&gt;- _select_collection (value_type):&amp;nbsp;Type[Union[AddressBook, NoteBook]]&lt;br&gt;&lt;/div&gt;&lt;div style=&quot;text-align: left;&quot;&gt;+ create (value_type): Union[AddressBook, NoteBook]&lt;/div&gt;&lt;div style=&quot;text-align: left;&quot;&gt;+ read_all&amp;nbsp;&lt;/div&gt;&lt;br&gt;&lt;div style=&quot;text-align: left;&quot;&gt;+ sorted (sort_key): list&lt;/div&gt;&lt;div style=&quot;text-align: left;&quot;&gt;+ edit (field, value, updates)&lt;br&gt;&lt;/div&gt;&lt;div style=&quot;text-align: left;&quot;&gt;+ edit_by_criteria (search_criteria, updates)&lt;/div&gt;&lt;div style=&quot;text-align: left;&quot;&gt;+ delete (field, value)&lt;/div&gt;&lt;div style=&quot;text-align: left;&quot;&gt;+ look_for_doubles (field, value): list&lt;/div&gt;&lt;div style=&quot;text-align: left;&quot;&gt;&lt;br&gt;&lt;/div&gt;&lt;div style=&quot;&quot;&gt;&lt;br&gt;&lt;/div&gt;" style="rounded=0;whiteSpace=wrap;html=1;" vertex="1" parent="1">
          <mxGeometry x="295" y="585" width="415" height="165" as="geometry" />
        </mxCell>
      </root>
    </mxGraphModel>
  </diagram>
</mxfile>
